<?xml version="1.0" standalone="no"?>
<!DOCTYPE svg PUBLIC "-//W3C//DTD SVG 20010904//EN"
 "http://www.w3.org/TR/2001/REC-SVG-20010904/DTD/svg10.dtd">
<svg version="1.0" xmlns="http://www.w3.org/2000/svg"
 width="257.000000pt" height="257.000000pt" viewBox="0 0 257.000000 257.000000"
 preserveAspectRatio="xMidYMid meet">
<metadata>
Created by potrace 1.11, written by Peter Selinger 2001-2013
</metadata>
<g transform="translate(0.000000,257.000000) scale(0.100000,-0.100000)"
fill="#000000" stroke="none">
<path d="M1507 1778 c-14 -13 -53 -57 -88 -98 -34 -41 -69 -81 -76 -88 -16
-16 -17 -34 -2 -49 8 -8 4 -15 -18 -26 -28 -15 -30 -14 -68 21 -22 21 -58 52
-79 71 l-40 34 -18 -23 c-10 -12 -18 -17 -18 -11 0 25 -34 21 -159 -19 l-131
-41 0 -72 c0 -78 9 -103 34 -94 9 4 16 1 16 -6 0 -8 -20 -12 -62 -13 -35 0
-72 -4 -83 -8 -17 -6 -20 -2 -22 24 -4 61 -42 117 -109 163 -56 38 -95 48
-189 48 -102 0 -179 -20 -284 -73 -123 -63 -123 -63 -47 -188 58 -96 66 -105
92 -104 28 1 31 -4 128 -222 54 -122 104 -225 110 -227 13 -5 182 47 200 62
15 13 14 33 -8 114 -9 32 -16 59 -16 61 0 1 20 -16 44 -39 70 -67 144 -73 269
-20 13 5 17 2 17 -13 0 -21 24 -47 37 -39 4 3 33 8 64 11 71 8 96 13 109 21 6
3 10 37 10 76 l0 69 170 -85 c93 -47 177 -85 185 -85 14 0 19 11 16 38 -3 19
17 23 130 26 58 1 111 6 118 10 7 5 36 58 65 118 l51 109 64 -150 c35 -82 69
-152 77 -155 7 -3 32 -3 56 0 77 9 103 12 129 13 33 1 43 24 25 59 -31 61 -30
69 13 93 22 12 41 30 44 39 2 10 -2 53 -11 95 l-15 78 29 24 c16 12 33 23 38
23 7 0 3 -75 -8 -137 -15 -82 -16 -111 -4 -121 7 -5 56 -13 110 -17 88 -6 97
-5 101 12 6 20 17 111 23 183 4 56 13 143 20 195 2 22 7 58 9 80 2 22 6 49 8
60 10 49 -33 103 -92 118 -34 8 -86 -16 -107 -50 -10 -15 -19 -30 -21 -32 -1
-2 -8 1 -15 6 -45 35 -193 39 -318 9 -36 -8 -67 -12 -71 -8 -3 4 -14 27 -24
52 -10 25 -25 52 -32 60 -19 20 -27 8 -110 -155 -36 -71 -67 -132 -69 -134 -2
-2 -16 11 -31 29 -15 18 -50 43 -77 56 l-50 23 37 16 c21 8 46 24 57 35 20 20
19 20 -31 97 -28 43 -57 81 -64 86 -8 4 -23 -1 -38 -15z m-1030 -480 c-3 -8
-6 -5 -6 6 -1 11 2 17 5 13 3 -3 4 -12 1 -19z m1039 -224 c-3 -9 -6 -20 -6
-25 0 -5 -4 -9 -9 -9 -6 0 -8 36 -2 48 6 11 22 -2 17 -14z"/>
</g>
</svg>
